# xmcd
#
# Track frame offsets:
#	150
#	16443
#	32238
#	51066
#	74622
#	94725
#	112687
#	131460
#	158425
#	179215
#
# Disc length: 2623 seconds
#
# Revision: 3
# Processed by: cddbd v1.5.2PL0 Copyright (c) Steve Scherf et al.
# Submitted via: EZCDAudioConverter 6.0.2.1
#
DISCID=800a3d0a
DTITLE=Rodney Crowell - Close Ties
DYEAR=2017
DGENRE=Country
TTITLE0=East Houston Blues
TTITLE1=Reckless
TTITLE2=Life Without Susanna
TTITLE3=It Ain't Over Yet (feat, Rosanne Cash and John Paul White)
TTITLE4=I Don't Care Anymore
TTITLE5=I'm Tied To Ya' (feat. Sheryl Crow)
TTITLE6=Forgive Me Annabelle
TTITLE7=Forty Miles From Nowhere
TTITLE8=Storm Warning
TTITLE9=Nashville 1972
EXTD=
EXTT0=
EXTT1=
EXTT2=
EXTT3=
EXTT4=
EXTT5=
EXTT6=
EXTT7=
EXTT8=
EXTT9=
PLAYORDER=
